<svg height="508" viewBox="0 0 384 381" width="512" xmlns="http://www.w3.org/2000/svg"><path d="m117.511719 159.609375 73.765625-73.761719 73.800781 73.800782 42.921875-42.921876-116.722656-116.726562-116.683594 116.6875zm-73.230469-12.617187 42.917969 42.917968-42.917969 42.917969-42.921875-42.917969zm73.230469 73.230468 73.765625 73.761719 73.800781-73.796875 42.945313 42.898438-116.746094 116.746093-116.6875-116.683593-.0625-.058594zm263.6875-30.292968-42.917969 42.921874-42.925781-42.917968 42.921875-42.925782zm0 0"/><path d="m234.8125 189.894531h.019531l-43.554687-43.554687-32.1875 32.1875h-.003906l-3.695313 3.699218-7.6875 7.6875.058594.0625 43.515625 43.515626 43.554687-43.554688.019531-.023438zm0 0"/></svg>